<svg width="315" height="67" viewBox="0 0 315 67" fill="none" xmlns="http://www.w3.org/2000/svg">
<path d="M3.02402 34.062L27.964 23.564L30.226 30.582L12.014 37.658L30.226 44.734L27.964 51.752L3.02402 41.254V34.062ZM51.3725 55L61.0005 14.806H87.0425L85.1865 22.288H68.1925L66.1625 30.872H81.1845L79.3865 38.354H64.3645L60.3625 55H51.3725ZM93.0278 55H84.4438L91.6938 24.492H100.336L93.0278 55ZM97.2038 20.78C96.0051 20.78 94.9225 20.432 93.9558 19.736C92.9891 19.0013 92.5058 17.8993 92.5058 16.43C92.5058 15.618 92.6605 14.864 92.9698 14.168C93.3178 13.4333 93.7625 12.8147 94.3038 12.312C94.8451 11.7707 95.4638 11.3453 96.1598 11.036C96.8945 10.7267 97.6678 10.572 98.4798 10.572C99.6785 10.572 100.761 10.9393 101.728 11.674C102.694 12.37 103.178 13.4527 103.178 14.922C103.178 15.734 103.004 16.5073 102.656 17.242C102.346 17.938 101.921 18.5567 101.38 19.098C100.838 19.6007 100.2 20.0067 99.4658 20.316C98.7698 20.6253 98.0158 20.78 97.2038 20.78ZM107.888 25.884C108.545 25.6907 109.26 25.478 110.034 25.246C110.846 24.9753 111.735 24.7433 112.702 24.55C113.707 24.318 114.809 24.144 116.008 24.028C117.245 23.8733 118.637 23.796 120.184 23.796C124.746 23.796 127.878 25.1107 129.58 27.74C131.281 30.3693 131.571 33.9653 130.45 38.528L126.506 55H117.864L121.692 38.876C121.924 37.8707 122.098 36.904 122.214 35.976C122.368 35.0093 122.368 34.178 122.214 33.482C122.059 32.7473 121.692 32.1673 121.112 31.742C120.57 31.278 119.72 31.046 118.56 31.046C117.438 31.046 116.298 31.162 115.138 31.394L109.512 55H100.87L107.888 25.884ZM146.364 55.812C144.43 55.812 142.768 55.4833 141.376 54.826C140.022 54.1687 138.901 53.2793 138.012 52.158C137.161 50.998 136.523 49.664 136.098 48.156C135.711 46.6093 135.518 44.966 135.518 43.226C135.518 40.5967 135.982 38.122 136.91 35.802C137.876 33.4433 139.191 31.394 140.854 29.654C142.516 27.914 144.488 26.5413 146.77 25.536C149.051 24.5307 151.545 24.028 154.252 24.028C154.948 24.028 155.586 24.0667 156.166 24.144C156.784 24.2213 157.403 24.3373 158.022 24.492L161.154 11.384L170.144 9.992L162.488 41.834C161.946 44.038 161.792 46.2613 162.024 48.504C162.256 50.708 162.7 52.68 163.358 54.42L155.644 55.522C155.412 55.058 155.199 54.6133 155.006 54.188C154.812 53.7627 154.619 53.2793 154.426 52.738C153.343 53.6273 152.125 54.362 150.772 54.942C149.457 55.522 147.988 55.812 146.364 55.812ZM156.34 31.394C156.108 31.3553 155.895 31.3167 155.702 31.278C155.547 31.2393 155.373 31.22 155.18 31.22C155.025 31.1813 154.812 31.162 154.542 31.162C154.271 31.162 153.923 31.162 153.498 31.162C152.144 31.162 150.888 31.4907 149.728 32.148C148.568 32.7667 147.562 33.6173 146.712 34.7C145.9 35.7827 145.262 37.02 144.798 38.412C144.334 39.7653 144.102 41.1573 144.102 42.588C144.102 44.444 144.411 45.9133 145.03 46.996C145.687 48.04 146.847 48.562 148.51 48.562C149.399 48.562 150.211 48.388 150.946 48.04C151.68 47.692 152.454 47.112 153.266 46.3C153.343 45.3333 153.459 44.328 153.614 43.284C153.807 42.2013 154 41.2153 154.194 40.326L156.34 31.394ZM311.955 41.254L287.015 51.752L284.753 44.734L302.965 37.658L284.753 30.582L287.015 23.564L311.955 34.062V41.254Z" fill="#E9EBF0"/>
<path d="M178.835 47.75C179.26 47.7887 179.685 47.8273 180.111 47.866C180.575 47.866 181.193 47.866 181.967 47.866C184.48 47.866 186.742 47.4793 188.753 46.706C190.802 45.9327 192.523 44.8307 193.915 43.4C195.345 41.9307 196.447 40.152 197.221 38.064C197.994 35.9373 198.381 33.5593 198.381 30.93C198.381 29.5767 198.207 28.3587 197.859 27.276C197.511 26.1547 196.931 25.2073 196.119 24.434C195.345 23.622 194.321 23.0033 193.045 22.578C191.807 22.1527 190.299 21.94 188.521 21.94C187.361 21.94 186.181 21.998 184.983 22.114L178.835 47.75ZM207.661 30.466C207.661 34.3713 207.023 37.8707 205.747 40.964C204.471 44.0573 202.634 46.6867 200.237 48.852C197.878 50.9787 194.997 52.622 191.595 53.782C188.192 54.942 184.345 55.522 180.053 55.522C178.429 55.522 176.553 55.4253 174.427 55.232C172.3 55.0387 170.251 54.7293 168.279 54.304L177.617 15.502C179.821 15.0767 181.928 14.7867 183.939 14.632C185.988 14.4387 187.825 14.342 189.449 14.342C192.31 14.342 194.862 14.7287 197.105 15.502C199.386 16.2753 201.3 17.3773 202.847 18.808C204.432 20.2387 205.631 21.94 206.443 23.912C207.255 25.884 207.661 28.0687 207.661 30.466ZM211.36 43.052C211.36 40.5773 211.785 38.18 212.636 35.86C213.525 33.54 214.762 31.4907 216.348 29.712C217.933 27.8947 219.847 26.4447 222.09 25.362C224.371 24.2407 226.884 23.68 229.63 23.68C230.983 23.68 232.24 23.8733 233.4 24.26C234.56 24.6467 235.565 25.2073 236.416 25.942C237.305 26.6767 237.982 27.5853 238.446 28.668C238.948 29.712 239.2 30.9107 239.2 32.264C239.2 34.4293 238.716 36.266 237.75 37.774C236.783 39.282 235.43 40.5193 233.69 41.486C231.988 42.414 229.958 43.0907 227.6 43.516C225.241 43.9413 222.67 44.154 219.886 44.154C220.156 45.778 220.736 46.938 221.626 47.634C222.554 48.2913 224.004 48.62 225.976 48.62C227.213 48.62 228.47 48.5233 229.746 48.33C231.022 48.098 232.22 47.7693 233.342 47.344L233.98 54.13C232.897 54.5553 231.505 54.942 229.804 55.29C228.141 55.638 226.324 55.812 224.352 55.812C221.954 55.812 219.924 55.4833 218.262 54.826C216.638 54.13 215.304 53.202 214.26 52.042C213.254 50.882 212.52 49.5287 212.056 47.982C211.592 46.4353 211.36 44.792 211.36 43.052ZM228.238 30.524C226.266 30.524 224.526 31.2393 223.018 32.67C221.548 34.062 220.582 35.918 220.118 38.238C222.515 38.1607 224.448 37.9673 225.918 37.658C227.387 37.31 228.528 36.904 229.34 36.44C230.152 35.976 230.693 35.4733 230.964 34.932C231.234 34.3907 231.37 33.8493 231.37 33.308C231.37 31.452 230.326 30.524 228.238 30.524ZM247.973 55C246.968 51.1333 246.059 46.6287 245.247 41.486C244.435 36.3047 243.875 30.64 243.565 24.492H252.497C252.536 26 252.594 27.6627 252.671 29.48C252.749 31.2587 252.845 33.0567 252.961 34.874C253.077 36.6913 253.213 38.47 253.367 40.21C253.522 41.9113 253.696 43.458 253.889 44.85C254.74 43.69 255.687 42.2593 256.731 40.558C257.814 38.8567 258.858 37.078 259.863 35.222C260.869 33.366 261.797 31.51 262.647 29.654C263.498 27.7593 264.155 26.0387 264.619 24.492H273.783C272.778 27.2373 271.521 30.06 270.013 32.96C268.544 35.86 266.959 38.6633 265.257 41.37C263.556 44.0767 261.816 46.6093 260.037 48.968C258.297 51.3267 256.673 53.3373 255.165 55H247.973Z" fill="#FE2E2C"/>
</svg>
